<?xml version="1.0"?>
<svg xmlns="http://www.w3.org/2000/svg" id="Layer_1" height="512px" viewBox="0 0 512 512" width="512px" data-name="Layer 1" class=""><g><path d="m478.43 76.42-15.68 12.92a2.432 2.432 0 0 0 -.89 1.83v.03a2.435 2.435 0 0 0 .86 1.87l14.8 12.52-41.21.12h-.05v-29.32h.05z" fill="#50dd5a" data-original="#50DD5A"/><path d="m298.81 18.42-15.68 12.92a2.466 2.466 0 0 0 -.89 1.83v.03a2.469 2.469 0 0 0 .86 1.87l14.8 12.52-41.21.12h-.05v-29.32h.05z" fill="#50dd5a" data-original="#50DD5A"/><path d="m121.43 76.42-15.68 12.92a2.432 2.432 0 0 0 -.89 1.83v.03a2.435 2.435 0 0 0 .86 1.87l14.8 12.52-41.21.12h-.05v-29.32h.05z" fill="#50dd5a" data-original="#50DD5A"/><path d="m79.263 68.145a6 6 0 0 0 -6 6v62.275h12v-62.275a6 6 0 0 0 -6-6z" fill="#1ae5be" data-original="#1AE5BE" class=""/><path d="m256.645 10.145a6 6 0 0 0 -6 6v61.275h12v-61.275a6 6 0 0 0 -6-6z" fill="#1ae5be" data-original="#1AE5BE" class=""/><path d="m436.263 68.145a6 6 0 0 0 -6 6v61.275h12v-61.275a6 6 0 0 0 -6-6z" fill="#1ae5be" data-original="#1AE5BE" class=""/><path d="m202.24 255.44v.35l.03 45.7h106.34l.01-45.69v-.37z" fill="#88ced8" data-original="#88CED8" class=""/><path d="m202.24 255.44v.35l.03 45.7h21l-.03-45.7v-.35l85.38-.008v-.002z" fill="#cafffe" data-original="#CAFFFE" class=""/><path d="m383.54 339.25-254.96.17v156.37h254.86.12v-156.54z" fill="#88ced8" data-original="#88CED8" class=""/><path d="m384.05 300.42h-19.97a1.394 1.394 0 0 1 -1.42-1.36v-15.21a1.388 1.388 0 0 0 -1.42-1.36h-17.78a1.386 1.386 0 0 0 -1.41 1.36v15.21a1.394 1.394 0 0 1 -1.42 1.36h-16.55a1.388 1.388 0 0 1 -1.42-1.36v-15.21a1.394 1.394 0 0 0 -1.42-1.36h-17.6a1.394 1.394 0 0 0 -1.42 1.36v15.21a1.388 1.388 0 0 1 -1.42 1.36h-15.17a1.394 1.394 0 0 1 -1.42-1.36v-13.97a2.3 2.3 0 0 0 -2.31-2.31h-13.92a2.3 2.3 0 0 0 -2.31 2.31l.05 15.06a1.379 1.379 0 0 1 -1.41 1.36h-15.49a1.386 1.386 0 0 1 -1.41-1.36v-16.3a1.394 1.394 0 0 0 -1.42-1.36h-16.67a1.394 1.394 0 0 0 -1.42 1.36v15.21a1.386 1.386 0 0 1 -1.41 1.36h-15.17a1.388 1.388 0 0 1 -1.42-1.36v-15.21a1.394 1.394 0 0 0 -1.42-1.36h-19.02a1.388 1.388 0 0 0 -1.42 1.36v15.21a1.394 1.394 0 0 1 -1.42 1.36h-15.84a1.394 1.394 0 0 1 -1.42-1.36v-15.21a1.388 1.388 0 0 0 -1.42-1.36h-17.07a1.386 1.386 0 0 0 -1.41 1.36v15.21a1.394 1.394 0 0 1 -1.42 1.36h-20l.54 39 254.96-.17h.02z" fill="#f9677f" data-original="#F9677F" class="active-path" style="fill:#EF7F1B" data-old_color="#f9677f"/><path d="m148.58 339.407-20 .013v156.37h20v-156.37z" fill="#cafffe" data-original="#CAFFFE" class=""/><path d="m148.04 300.42h-19.63-.37l.54 39 20-.013z" fill="#ff97a1" data-original="#FF97A1" class="" style="fill:#FF9F49" data-old_color="#ff97a1"/><path d="m297.38 379.42a59.6 59.6 0 0 0 -41.37-16.45c-32.31 0-58.51 25.14-58.51 56.15l-.02 76.54v.13h117.04v-76.67a54.859 54.859 0 0 0 -17.14-39.7z" fill="#fb6771" data-original="#FB6771" class="" style="fill:#F28D33" data-old_color="#fb6771"/><path d="m412.3 181.27v72.15h44.61v-72.15z" fill="#88ced8" data-original="#88CED8" class=""/><path d="m233.02 123.27h44.6v80.97h-44.6z" fill="#88ced8" data-original="#88CED8" class=""/><path d="m55.3 181.27v72.15h44.61v-72.15z" fill="#88ced8" data-original="#88CED8" class=""/><path d="m460.02 162.93v.34h-50.01v-.08l25.94-36.13z" fill="#fb6771" data-original="#FB6771" class="" style="fill:#F28D33" data-old_color="#fb6771"/><path d="m298.1 417.75v1.33h-.02l-42.15-.06.15-39.67a43.946 43.946 0 0 1 29.71 11.25 36.654 36.654 0 0 1 12.31 27.15z" fill="#c79a83" data-original="#C79A83" class=""/><path d="m298.1 419.08-.04 45.15-42.29-.21.16-45 42.15.06z" fill="#dba993" data-original="#DBA993" class=""/><path d="m298.06 464.23-.02 31.56h-42.39l.12-31.77z" fill="#c79a83" data-original="#C79A83" class=""/><path d="m256.64 69.1.03-.04 24.06 35.87v.34h-50v-.08z" fill="#fb6771" data-original="#FB6771" class="" style="fill:#F28D33" data-old_color="#fb6771"/><path d="m256.08 379.35-.15 39.67-41.78-.05h-.09v-1.22c0-21.21 18.82-38.4 42.02-38.4z" fill="#dba993" data-original="#DBA993" class=""/><path d="m255.93 419.02-.16 45-41.7-.2-.01-44.85h.09z" fill="#c79a83" data-original="#C79A83" class=""/><path d="m255.77 464.02-.12 31.77h-41.57v-.05l-.01-31.92z" fill="#dba993" data-original="#DBA993" class=""/><path d="m103.02 162.93v.34h-50.01v-.08l25.94-36.13z" fill="#fb6771" data-original="#FB6771" class="" style="fill:#F28D33" data-old_color="#fb6771"/><path d="m402.8 163.27h64.96v18h-64.96z" fill="#a0eaea" data-original="#A0EAEA" class=""/><path d="m223.52 105.27h64.96v18h-64.96z" fill="#a0eaea" data-original="#A0EAEA" class=""/><path d="m45.8 163.27h64.96v18h-64.96z" fill="#a0eaea" data-original="#A0EAEA" class=""/><path d="m128.58 470.58v25.21h-99.53v-25.51l98.95.3z" fill="#fb6771" data-original="#FB6771" class="" style="fill:#F28D33" data-old_color="#fb6771"/><path d="m29.05 316.1v154.18l98.95.3h.58v-154.48z" fill="#a0eaea" data-original="#A0EAEA" class=""/><g fill="#80d6d3"><path d="m128.58 383.59v15.76h-17.23a1.4 1.4 0 0 1 -1.42-1.37v-13.03a1.394 1.394 0 0 1 1.42-1.36z" data-original="#80D6D3" class=""/><path d="m78.03 427.62h22.73v15.75h-22.73z" data-original="#80D6D3" class=""/><path d="m63.14 334.95h22.74v15.76h-22.74z" data-original="#80D6D3" class=""/><path d="m47.59 380.15v13.03a1.394 1.394 0 0 1 -1.42 1.36h-17.12v-15.75h17.12a1.394 1.394 0 0 1 1.42 1.36z" data-original="#80D6D3" class=""/></g><path d="m483.09 470.49v25.3h-99.53v-25.28h.44z" fill="#fb6771" data-original="#FB6771" class="" style="fill:#F28D33" data-old_color="#fb6771"/><path d="m383.56 315.1v155.41h.44l99.09-.02v-155.39z" fill="#a0eaea" data-original="#A0EAEA" class=""/><path d="m483.09 390.83v15.76l-17.22-.01a1.394 1.394 0 0 1 -1.42-1.36v-13.03a1.394 1.394 0 0 1 1.42-1.36z" fill="#80d6d3" data-original="#80D6D3" class=""/><path d="m432.55 434.86h22.73v15.75h-22.73z" fill="#80d6d3" data-original="#80D6D3" class=""/><path d="m417.66 334h22.73v15.75h-22.73z" fill="#80d6d3" data-original="#80D6D3" class=""/><path d="m402.11 384.38v14.03a1.388 1.388 0 0 1 -1.42 1.36h-17.13v-16.75h17.13a1.394 1.394 0 0 1 1.42 1.36z" fill="#80d6d3" data-original="#80D6D3" class=""/><path d="m55.3 181.27h24v72.063h-24z" fill="#c0f9f6" data-original="#C0F9F6" class=""/><path d="m77.01 163.27v-.08l13.535-18.851-11.595-17.279-25.94 36.13v.08h16.79z" fill="#ff97a1" data-original="#FF97A1" class="" style="fill:#FF9F49" data-old_color="#ff97a1"/><path d="m45.8 163.27h24v18h-24z" fill="#cafffe" data-original="#CAFFFE" class=""/><path d="m29.05 470.28v25.51h24v-25.437z" fill="#ff97a1" data-original="#FF97A1" class="" style="fill:#FF9F49" data-old_color="#ff97a1"/><path d="m29.05 316.1v154.18l24 .073v-.073-154.18z" fill="#cafffe" data-original="#CAFFFE" class=""/><path d="m138.74 253.42h-9.48a1.394 1.394 0 0 1 -1.42-1.36v-15.81a1.388 1.388 0 0 0 -1.42-1.36h-17.39a1.388 1.388 0 0 0 -1.42 1.36v15.81a1.394 1.394 0 0 1 -1.42 1.36h-17.8a1.394 1.394 0 0 1 -1.42-1.36v-15.81a1.388 1.388 0 0 0 -1.42-1.36h-17.54a1.394 1.394 0 0 0 -1.42 1.36v15.81a1.386 1.386 0 0 1 -1.41 1.36h-17.14a1.394 1.394 0 0 1 -1.42-1.36v-15.81a1.388 1.388 0 0 0 -1.42-1.36h-16.46a1.388 1.388 0 0 0 -1.42 1.36v15.81a1.394 1.394 0 0 1 -1.42 1.36h-8.48a1.388 1.388 0 0 0 -1.42 1.36v61.32h124l.16-61.32a1.394 1.394 0 0 0 -1.42-1.36z" fill="#fb6771" data-original="#FB6771" class="" style="fill:#F28D33" data-old_color="#fb6771"/><path d="m40 254.78a1.388 1.388 0 0 1 1.42-1.36h6.62a1.394 1.394 0 0 1 -1.42-1.36v-15.81a1.388 1.388 0 0 0 -1.42-1.36h-16.46a1.388 1.388 0 0 0 -1.42 1.36v15.81a1.394 1.394 0 0 1 -1.42 1.36h-8.48a1.388 1.388 0 0 0 -1.42 1.36v61.32h24z" fill="#ff97a1" data-original="#FF97A1" class="" style="fill:#FF9F49" data-old_color="#ff97a1"/><rect fill="#60b0b2" height="20.04" rx="4.45" width="14.08" x="70.72" y="198.81" data-original="#60B0B2" class=""/><path d="m412.3 181.27h25v72.15h-25z" fill="#c0f9f6" data-original="#C0F9F6" class=""/><path d="m435.95 127.06-25.94 36.13v.08h25v-.08l13.018-18.131z" fill="#ff97a1" data-original="#FF97A1" class="" style="fill:#FF9F49" data-old_color="#ff97a1"/><path d="m402.8 163.27v18h9.5 15.5v-18z" fill="#cafffe" data-original="#CAFFFE" class=""/><rect fill="#60b0b2" height="20.04" rx="4.45" width="14.08" x="427.72" y="198.81" data-original="#60B0B2" class=""/><path d="m494.58 253.42h-8.48a1.394 1.394 0 0 1 -1.42-1.36v-15.81a1.388 1.388 0 0 0 -1.42-1.36h-16.46a1.388 1.388 0 0 0 -1.42 1.36v15.81a1.394 1.394 0 0 1 -1.42 1.36h-17.14a1.386 1.386 0 0 1 -1.41-1.36v-15.81a1.394 1.394 0 0 0 -1.42-1.36h-17.54a1.388 1.388 0 0 0 -1.42 1.36v15.81a1.394 1.394 0 0 1 -1.42 1.36h-17.8a1.394 1.394 0 0 1 -1.42-1.36v-15.81a1.388 1.388 0 0 0 -1.42-1.36h-17.39a1.388 1.388 0 0 0 -1.42 1.36v15.81a1.394 1.394 0 0 1 -1.42 1.36h-9.48a1.394 1.394 0 0 0 -1.42 1.36l.28 60.32h123.88v-60.32a1.388 1.388 0 0 0 -1.42-1.36z" fill="#fb6771" data-original="#FB6771" class="" style="fill:#F28D33" data-old_color="#fb6771"/><path d="m396.84 254.78a1.394 1.394 0 0 1 1.42-1.36h7.55a1.394 1.394 0 0 1 -1.42-1.36v-15.81a1.388 1.388 0 0 0 -1.42-1.36h-17.39a1.388 1.388 0 0 0 -1.42 1.36v15.81a1.394 1.394 0 0 1 -1.42 1.36h-9.48a1.394 1.394 0 0 0 -1.42 1.36l.28 60.32h25z" fill="#ff97a1" data-original="#FF97A1" class="" style="fill:#FF9F49" data-old_color="#ff97a1"/><path d="m383.56 315.1v.36 155.05h.44l24.56-.005v-155.045-.36z" fill="#cafffe" data-original="#CAFFFE" class=""/><path d="m384 470.51h-.44v25.28h25v-25.28h.44l74.09-.015v-.005z" fill="#ff97a1" data-original="#FF97A1" class="" style="fill:#FF9F49" data-old_color="#ff97a1"/><path d="m233.02 123.27h20v80.97h-20z" fill="#c0f9f6" data-original="#C0F9F6" class=""/><path d="m256.67 69.06-.03.04-25.91 36.09v.08h20v-.08l15.6-21.729z" fill="#ff97a1" data-original="#FF97A1" class="" style="fill:#FF9F49" data-old_color="#ff97a1"/><path d="m223.52 105.27h20v18h-20z" fill="#cafffe" data-original="#CAFFFE" class=""/><path d="m262.52 145.26v11.14a4.447 4.447 0 0 1 -4.45 4.45h-5.19a4.453 4.453 0 0 1 -4.45-4.45v-11.14a4.46 4.46 0 0 1 4.45-4.45h5.19a4.453 4.453 0 0 1 4.45 4.45z" fill="#60b0b2" data-original="#60B0B2" class=""/><path d="m322.39 184.24h-13.76a3.89 3.89 0 0 0 -3.97 3.81v12.27a3.89 3.89 0 0 1 -3.97 3.81h-9.17a3.882 3.882 0 0 1 -3.96-3.81v-12.27a3.9 3.9 0 0 0 -3.97-3.81h-11.14a3.9 3.9 0 0 0 -3.97 3.81v12.27a3.89 3.89 0 0 1 -3.97 3.81h-10.48a5.431 5.431 0 0 1 -5.43-5.44v-10.64a3.9 3.9 0 0 0 -3.97-3.81h-12.96a3.9 3.9 0 0 0 -3.97 3.81v12.27a3.89 3.89 0 0 1 -3.97 3.81h-11.13a3.884 3.884 0 0 1 -3.97-3.81v-12.27a3.9 3.9 0 0 0 -3.97-3.81h-15.05a3.89 3.89 0 0 0 -3.97 3.84l.56 67.36 140.16-.01v-67.38a3.89 3.89 0 0 0 -3.97-3.81z" fill="#fb6771" data-original="#FB6771" class="" style="fill:#F28D33" data-old_color="#fb6771"/><path d="m207.133 185.094a4.027 4.027 0 0 0 -2.473-.854h-15.05a3.89 3.89 0 0 0 -3.97 3.84l.56 67.36h20l-.56-67.359a3.729 3.729 0 0 1 1.493-2.987z" fill="#ff97a1" data-original="#FF97A1" class="" style="fill:#FF9F49" data-old_color="#ff97a1"/><path d="m230.06 418.989v-1.239c0-16.026 10.748-29.752 26.009-35.506l.011-2.894c-23.2 0-42.02 17.19-42.02 38.4v1.22h.09z" fill="#c69483" data-original="#C69483" class=""/><path d="m230.07 463.82-.01-44.831-15.91-.019h-.09l.01 44.85 16 .077z" fill="#ba8974" data-original="#BA8974" class="" style="fill:#EF7F1B" data-old_color="#ba8974"/><path d="m230.07 463.897-16-.077.01 31.92v.05h16v-.05z" fill="#c69483" data-original="#C69483" class=""/></g> </svg>
